<svg xmlns="http://www.w3.org/2000/svg" xmlns:xlink="http://www.w3.org/1999/xlink" width="184" height="184" viewBox="0 0 184 184"><defs><filter id="a" x="0" y="0" width="184" height="184" filterUnits="userSpaceOnUse"><feOffset dy="3" input="SourceAlpha"/><feGaussianBlur stdDeviation="8" result="b"/><feFlood flood-opacity="0.161"/><feComposite operator="in" in2="b"/><feComposite in="SourceGraphic"/></filter><filter id="c" x="85" y="17" width="82" height="82" filterUnits="userSpaceOnUse"><feOffset dy="3" input="SourceAlpha"/><feGaussianBlur stdDeviation="8" result="d"/><feFlood flood-opacity="0.161"/><feComposite operator="in" in2="d"/><feComposite in="SourceGraphic"/></filter><filter id="e" x="17" y="85" width="82" height="82" filterUnits="userSpaceOnUse"><feOffset dy="3" input="SourceAlpha"/><feGaussianBlur stdDeviation="8" result="f"/><feFlood flood-opacity="0.161"/><feComposite operator="in" in2="f"/><feComposite in="SourceGraphic"/></filter><filter id="g" x="51" y="51" width="82" height="82" filterUnits="userSpaceOnUse"><feOffset dy="3" input="SourceAlpha"/><feGaussianBlur stdDeviation="8" result="h"/><feFlood flood-opacity="0.161"/><feComposite operator="in" in2="h"/><feComposite in="SourceGraphic"/></filter></defs><g transform="translate(-210 -381)"><g transform="matrix(1, 0, 0, 1, 210, 381)" filter="url(#a)"><rect width="136" height="136" rx="46" transform="translate(24 21)" fill="#fff"/></g><g transform="matrix(1, 0, 0, 1, 210, 381)" filter="url(#c)"><circle cx="17" cy="17" r="17" transform="translate(109 38)" fill="#22031f"/></g><g transform="matrix(1, 0, 0, 1, 210, 381)" filter="url(#e)"><circle cx="17" cy="17" r="17" transform="translate(41 106)" fill="#22031f"/></g><g transform="matrix(1, 0, 0, 1, 210, 381)" filter="url(#g)"><circle cx="17" cy="17" r="17" transform="translate(75 72)" fill="#22031f"/></g></g></svg>