<?xml version="1.0"?>
<svg xmlns="http://www.w3.org/2000/svg" height="512px" viewBox="0 0 464 464" width="512px"><g transform="matrix(0.877521 0 0 0.877521 28.4151 28.4151)"><path d="m64 440v-416c0-13.253906 10.746094-24 24-24h232l80 80v360c0 13.253906-10.746094 24-24 24h-288c-13.253906 0-24-10.746094-24-24zm0 0" fill="#87ced9" data-original="#87CED9"/><path d="m344 96h56v-16l-80-80v72c0 13.253906 10.746094 24 24 24zm0 0" fill="#71c4d1" data-original="#71C4D1"/><path d="m344 80h56l-80-80v56c0 13.253906 10.746094 24 24 24zm0 0" fill="#d6d9db" data-original="#D6D9DB"/><path d="m96.007812 24h16v16h-16zm0 0" fill="#5eb3d1" data-original="#5EB3D1"/><path d="m128.007812 24h16v16h-16zm0 0" fill="#5eb3d1" data-original="#5EB3D1"/><path d="m160.007812 24h16v16h-16zm0 0" fill="#5eb3d1" data-original="#5EB3D1"/><path d="m272 240h-272v-112l48-48h224zm0 0" fill="#4398d1" data-original="#4398D1"/><path d="m0 200 80-64 80 72 56-48 56 48v32h-272zm0 0" fill="#88b337" data-original="#88B337"/><path d="m184 128c0 13.253906-10.746094 24-24 24s-24-10.746094-24-24 10.746094-24 24-24 24 10.746094 24 24zm0 0" fill="#e8594a" data-original="#E8594A"/><path d="m35.070312 201.765625 40.003907-32.015625 10.007812 12.503906-40.007812 32.015625zm0 0" fill="#aacc60" data-original="#AACC60"/><path d="m194.347656 210.34375 15.996094-16 11.3125 11.3125-15.996094 16zm0 0" fill="#aacc60" data-original="#AACC60"/><path d="m48 128v-48l-48 48zm0 0" fill="#87ced9" data-original="#87CED9"/><path d="m264 312h176v112h-176zm0 0" fill="#e8594a" data-original="#E8594A"/><path d="m32 272h200v96h-200zm0 0" fill="#fdb62f" data-original="#FDB62F"/><g fill="#fd882f"><path d="m56 296h16v16h-16zm0 0" data-original="#FD882F"/><path d="m88 296h120v16h-120zm0 0" data-original="#FD882F"/><path d="m56 328h16v16h-16zm0 0" data-original="#FD882F"/><path d="m88 328h120v16h-120zm0 0" data-original="#FD882F"/></g><path d="m304 184h160v96h-160zm0 0" fill="#4398d1" data-original="#4398D1"/><path d="m328 208h32v16h-32zm0 0" fill="#126099" data-original="#126099"/><path d="m376 208h64v16h-64zm0 0" fill="#126099" data-original="#126099"/><path d="m328 240h112v16h-112zm0 0" fill="#126099" data-original="#126099"/><path d="m64 240h208v24h-208zm0 0" fill="#71c4d1" data-original="#71C4D1"/><path d="m314.34375 346.34375-16 16c-3.121094 3.125-3.121094 8.1875 0 11.3125l16 16 11.3125-11.3125-10.34375-10.34375 10.34375-10.34375zm0 0" fill="#c44639" data-original="#C44639" class="active-path" style="fill:#C44639"/><path d="m405.65625 362.34375-16-16-11.3125 11.3125 10.34375 10.34375-10.34375 10.34375 11.3125 11.3125 16-16c3.121094-3.125 3.121094-8.1875 0-11.3125zm0 0" fill="#c44639" data-original="#C44639" class="active-path" style="fill:#C44639"/><path d="m336.25 398.0625 15.984375-64.003906 15.515625 3.875-15.984375 64.003906zm0 0" fill="#c44639" data-original="#C44639" class="active-path" style="fill:#C44639"/><path d="m304 280h96v24h-96zm0 0" fill="#71c4d1" data-original="#71C4D1"/><path d="m264 424v24h134.527344c.949218-2.5625 1.445312-5.269531 1.472656-8v-16zm0 0" fill="#71c4d1" data-original="#71C4D1"/><path d="m64 368h168v16h-168zm0 0" fill="#71c4d1" data-original="#71C4D1"/></g> </svg>
