<svg xmlns="http://www.w3.org/2000/svg" width="1924.061" height="1802.665" viewBox="0 0 1924.061 1802.665"><g transform="translate(2 -693.335)"><g transform="translate(-2 -5)"><path d="M1420.953,0H1924V340.45q-11.859.549-23.846.55C1678.086,341,1489.378,198.411,1420.953,0ZM0,340.943V0H486.874C418.449,198.411,229.741,341,7.672,341Q3.83,341,0,340.943Z" transform="translate(0 2160)" fill="#4f304b"/><path d="M9090.177,2441.776c824.307-389.5,1419.64,0,1419.64,0l-196.627-295.48H9329.945Z" transform="translate(-8850)" fill="#4f304b"/></g><rect width="1924" height="834" transform="translate(-2 1326)" fill="#4f304b"/><path d="M8949.333,714.395C7822.954,557.787,7029.273,1326,7029.273,1326l1920.06,9.773" transform="translate(-7027.272)" fill="#4f304b"/></g></svg>