<svg xmlns="http://www.w3.org/2000/svg" width="553.648" height="407.916" viewBox="0 0 553.648 407.916">
  <g id="Grupo_20" data-name="Grupo 20" transform="translate(0)">
    <rect id="Rectángulo_36" data-name="Rectángulo 36" width="232.718" height="6.826" transform="translate(0 151.045)" fill="#e6e6e6"/>
    <rect id="Rectángulo_37" data-name="Rectángulo 37" width="58.955" height="58.955" transform="translate(154.525 93.952)" fill="#e6e6e6"/>
    <rect id="Rectángulo_38" data-name="Rectángulo 38" width="35.373" height="35.373" transform="translate(166.316 105.743)" fill="#ccc"/>
    <rect id="Rectángulo_39" data-name="Rectángulo 39" width="14.894" height="58.955" transform="translate(66.403 93.952)" fill="#e6e6e6"/>
    <rect id="Rectángulo_40" data-name="Rectángulo 40" width="14.894" height="6.826" transform="translate(66.403 103.26)" fill="#ccc"/>
    <rect id="Rectángulo_41" data-name="Rectángulo 41" width="14.894" height="6.826" transform="translate(66.403 133.048)" fill="#ccc"/>
    <rect id="Rectángulo_42" data-name="Rectángulo 42" width="14.894" height="58.955" transform="translate(89.364 93.952)" fill="#e6e6e6"/>
    <rect id="Rectángulo_43" data-name="Rectángulo 43" width="14.894" height="6.826" transform="translate(89.364 103.26)" fill="#ccc"/>
    <rect id="Rectángulo_44" data-name="Rectángulo 44" width="14.894" height="6.826" transform="translate(89.364 133.048)" fill="#ccc"/>
    <rect id="Rectángulo_45" data-name="Rectángulo 45" width="14.894" height="58.955" transform="matrix(-0.896, -0.444, 0.444, -0.896, 40.759, 153.151)" fill="#e6e6e6"/>
    <rect id="Rectángulo_46" data-name="Rectángulo 46" width="14.894" height="6.826" transform="matrix(-0.896, -0.444, 0.444, -0.896, 59.758, 114.776)" fill="#ccc"/>
    <rect id="Rectángulo_47" data-name="Rectángulo 47" width="14.894" height="6.826" transform="matrix(-0.896, -0.444, 0.444, -0.896, 46.542, 141.472)" fill="#ccc"/>
    <path id="Trazado_16" data-name="Trazado 16" d="M517.959,170.382l-7.5,12.991-7.5,12.991h30l-7.5-12.991Z" transform="translate(-326.509 -52.766)" fill="#e6e6e6"/>
    <path id="Trazado_17" data-name="Trazado 17" d="M536.838,173.978l-7.5,12.991-7.5,12.991h30l-7.5-12.991Z" transform="translate(-358.42 -53.88)" fill="#e6e6e6"/>
    <ellipse id="Elipse_20" data-name="Elipse 20" cx="4.344" cy="4.344" rx="4.344" ry="4.344" transform="translate(168.798 107.604)" fill="#e6e6e6"/>
    <rect id="Rectángulo_48" data-name="Rectángulo 48" width="232.718" height="6.826" transform="translate(0 57.337)" fill="#e6e6e6"/>
    <rect id="Rectángulo_49" data-name="Rectángulo 49" width="58.955" height="58.955" transform="translate(19.238 0.243)" fill="#e6e6e6"/>
    <rect id="Rectángulo_50" data-name="Rectángulo 50" width="35.373" height="35.373" transform="translate(31.029 12.034)" fill="#ccc"/>
    <rect id="Rectángulo_51" data-name="Rectángulo 51" width="14.894" height="58.955" transform="translate(151.422 0.243)" fill="#e6e6e6"/>
    <rect id="Rectángulo_52" data-name="Rectángulo 52" width="14.894" height="6.826" transform="translate(151.422 9.552)" fill="#ccc"/>
    <rect id="Rectángulo_53" data-name="Rectángulo 53" width="14.894" height="6.826" transform="translate(151.422 39.34)" fill="#ccc"/>
    <rect id="Rectángulo_54" data-name="Rectángulo 54" width="14.894" height="58.955" transform="translate(128.461 0.243)" fill="#e6e6e6"/>
    <rect id="Rectángulo_55" data-name="Rectángulo 55" width="14.894" height="6.826" transform="translate(128.461 9.552)" fill="#ccc"/>
    <rect id="Rectángulo_56" data-name="Rectángulo 56" width="14.894" height="6.826" transform="translate(128.461 39.34)" fill="#ccc"/>
    <rect id="Rectángulo_57" data-name="Rectángulo 57" width="14.894" height="58.955" transform="matrix(0.896, -0.444, 0.444, 0.896, 165.802, 6.608)" fill="#e6e6e6"/>
    <rect id="Rectángulo_58" data-name="Rectángulo 58" width="14.894" height="6.826" transform="matrix(0.896, -0.444, 0.444, 0.896, 169.932, 14.95)" fill="#ccc"/>
    <rect id="Rectángulo_59" data-name="Rectángulo 59" width="14.894" height="6.826" transform="matrix(0.896, -0.444, 0.444, 0.896, 183.149, 41.646)" fill="#ccc"/>
    <path id="Trazado_18" data-name="Trazado 18" d="M735.515,34.634l7.5,12.991,7.5,12.991h-30l7.5-12.991Z" transform="translate(-694.246 -10.726)" fill="#e6e6e6"/>
    <path id="Trazado_19" data-name="Trazado 19" d="M716.636,38.23l7.5,12.991,7.5,12.991h-30l7.5-12.991Z" transform="translate(-662.335 -11.84)" fill="#e6e6e6"/>
    <ellipse id="Elipse_21" data-name="Elipse 21" cx="4.344" cy="4.344" rx="4.344" ry="4.344" transform="translate(55.232 13.896)" fill="#e6e6e6"/>
    <rect id="Rectángulo_60" data-name="Rectángulo 60" width="232.718" height="6.826" transform="translate(0 244.753)" fill="#e6e6e6"/>
    <rect id="Rectángulo_61" data-name="Rectángulo 61" width="58.955" height="58.955" transform="translate(19.238 187.659)" fill="#e6e6e6"/>
    <rect id="Rectángulo_62" data-name="Rectángulo 62" width="35.373" height="35.373" transform="translate(31.029 199.45)" fill="#ccc"/>
    <rect id="Rectángulo_63" data-name="Rectángulo 63" width="14.894" height="58.955" transform="translate(151.422 187.659)" fill="#e6e6e6"/>
    <rect id="Rectángulo_64" data-name="Rectángulo 64" width="14.894" height="6.826" transform="translate(151.422 196.968)" fill="#ccc"/>
    <rect id="Rectángulo_65" data-name="Rectángulo 65" width="14.894" height="6.826" transform="translate(151.422 226.756)" fill="#ccc"/>
    <rect id="Rectángulo_66" data-name="Rectángulo 66" width="14.894" height="58.955" transform="translate(128.461 187.659)" fill="#e6e6e6"/>
    <rect id="Rectángulo_67" data-name="Rectángulo 67" width="14.894" height="6.826" transform="translate(128.461 196.968)" fill="#ccc"/>
    <rect id="Rectángulo_68" data-name="Rectángulo 68" width="14.894" height="6.826" transform="translate(128.461 226.756)" fill="#ccc"/>
    <rect id="Rectángulo_69" data-name="Rectángulo 69" width="14.894" height="58.955" transform="matrix(0.896, -0.444, 0.444, 0.896, 165.802, 194.024)" fill="#e6e6e6"/>
    <rect id="Rectángulo_70" data-name="Rectángulo 70" width="14.894" height="6.826" transform="matrix(0.896, -0.444, 0.444, 0.896, 169.932, 202.367)" fill="#ccc"/>
    <rect id="Rectángulo_71" data-name="Rectángulo 71" width="14.894" height="6.826" transform="matrix(0.896, -0.444, 0.444, 0.896, 183.149, 229.062)" fill="#ccc"/>
    <path id="Trazado_20" data-name="Trazado 20" d="M735.515,306.129l7.5,12.991,7.5,12.992h-30l7.5-12.992Z" transform="translate(-694.246 -94.805)" fill="#e6e6e6"/>
    <path id="Trazado_21" data-name="Trazado 21" d="M716.636,309.725l7.5,12.991,7.5,12.992h-30l7.5-12.992Z" transform="translate(-662.335 -95.919)" fill="#e6e6e6"/>
    <ellipse id="Elipse_22" data-name="Elipse 22" cx="4.344" cy="4.344" rx="4.344" ry="4.344" transform="translate(55.232 201.312)" fill="#e6e6e6"/>
    <ellipse id="Elipse_23" data-name="Elipse 23" cx="274.143" cy="19.47" rx="274.143" ry="19.47" transform="translate(5.363 368.975)" fill="#e6e6e6"/>
    <path id="Trazado_22" data-name="Trazado 22" d="M696.526,706.494c44.7-7.956,93.583-6.634,144.86,0-23.371-19.73-43.541-39.46-20.17-59.19-45.588,9.4-51.973,8.453-102.685,0C730.292,667.034,708.288,686.764,696.526,706.494Z" transform="translate(-631.194 -307.145)" fill="#00a479"/>
    <path id="Trazado_23" data-name="Trazado 23" d="M696.526,706.494c44.7-7.956,93.583-6.634,144.86,0-23.371-19.73-43.541-39.46-20.17-59.19-45.588,9.4-51.973,8.453-102.685,0C730.292,667.034,708.288,686.764,696.526,706.494Z" transform="translate(-631.194 -307.145)" fill="#00a479" opacity="0.2"/>
    <path id="Trazado_24" data-name="Trazado 24" d="M712.321,699.658c37.972-6.351,79.5-5.295,123.053,0-19.853-15.749-36.987-31.5-17.134-47.246-38.725,7.507-44.149,6.747-87.227,0C741,668.161,722.313,683.909,712.321,699.658Z" transform="translate(-636.086 -308.727)" fill="#00c893"/>
    <ellipse id="Elipse_24" data-name="Elipse 24" cx="20.232" cy="20.232" rx="20.232" ry="20.232" transform="translate(70.466 325.091)" fill="#2f2e41"/>
    <path id="Trazado_25" data-name="Trazado 25" d="M525.9,466.249l-14.019,2.337-7.009,20.249L525.122,501.3l23.365-35.047H525.9Z" transform="translate(-343.358 -144.393)" fill="#a0616a"/>
    <ellipse id="Elipse_25" data-name="Elipse 25" cx="32.71" cy="32.71" rx="32.71" ry="32.71" transform="translate(110.113 287.589)" fill="#a0616a"/>
    <path id="Trazado_26" data-name="Trazado 26" d="M358.989,445.919s79.439,8.567,93.458,7.009,20.249-3.115,20.249-3.115,9.346,12.461,4.673,17.913a33.7,33.7,0,0,1-9.346,7.788s-8.567-2.336-14.8,0-69.315,12.461-80.218,3.115S358.989,445.919,358.989,445.919Z" transform="translate(-35.48 -244.779)" fill="#2f2e41"/>
    <path id="Trazado_27" data-name="Trazado 27" d="M371.038,632.561s52.181-14.8,61.526-80.218v-6.23s10.325,18.112,14.019,21.807c4.284,4.284,19.47,42.835,18.692,46.729s0,5.452,0,5.452l22.586-2.336v-7.01s-12.072-36.215-12.85-44.782-29.984-68.146-29.984-68.146-10.9-22.586-29.595,0-20.249,38.162-20.249,38.162l-24.143,46.729Z" transform="translate(-52.981 -257.745)" fill="#2f2e41"/>
    <path id="Trazado_28" data-name="Trazado 28" d="M316.167,440.915l24.922-8.567s23.365-17.134,17.913,0-30.374,54.517-37.383,50.623-15.439-13.56-13.561-14.957S322.4,456.492,316.167,440.915Z" transform="translate(118.712 -238.218)" fill="#2f2e41"/>
    <path id="Trazado_29" data-name="Trazado 29" d="M347.778,659.259l20.118,9.825s24.329,3.743,10.761,10.761-51,14.5-52.869,7.954-1.129-17.421.839-17.132S342.164,672.359,347.778,659.259Z" transform="translate(84.089 -310.848)" fill="#2f2e41"/>
    <path id="Trazado_30" data-name="Trazado 30" d="M680.567,613.614s10.125,43.614-7.009,52.959-137.072,10.9-146.417-6.231-4.673-17.134-4.673-17.134l24.922-28.037-20.249-1.557s0-6.231,7.009-7.009,28.816-8.567,47.508-3.115,29.595-10.9,29.595-10.9Z" transform="translate(-352.386 -290.2)" fill="#00805e"/>
    <path id="Trazado_31" data-name="Trazado 31" d="M382.493,269.322l13.24,72.43-91.122-10.9-16.355-65.421Z" transform="translate(-41.072 -82.201)" fill="#3f3d56"/>
    <path id="Trazado_32" data-name="Trazado 32" d="M383.6,273.271l10.9,64.641-82.944-9.735-15.966-58.8Z" transform="translate(-44.902 -83.424)" fill="#fff"/>
    <path id="Trazado_33" data-name="Trazado 33" d="M309.365,376.772l3.115-.779,1.557,3.115-24.922,69.315-2.344-.9L286,442.971Z" transform="translate(42.181 -116.441)" fill="#b3b3b3"/>
    <path id="Trazado_34" data-name="Trazado 34" d="M407.416,370.322l-24.922,72.43-94.237-14.019L316.294,360.2Z" transform="translate(-52.754 -111.55)" fill="#d0cde1"/>
    <path id="Trazado_35" data-name="Trazado 35" d="M375.623,367.986v3.894l-69.314-7.788.779-3.894Z" transform="translate(-33.423 -111.55)" fill="#3f3d56"/>
    <path id="Trazado_36" data-name="Trazado 36" d="M390.341,379.617l-10.9,30.374-70.872-8.567,12.461-28.816Z" transform="translate(-49.698 -115.393)" fill="#3f3d56"/>
    <path id="Trazado_37" data-name="Trazado 37" d="M590.593,585.01l2.336-6.231s17.913-31.153,27.258-24.922-19.47,36.6-19.47,36.6h-9.346Z" transform="translate(-338.735 -277.951)" fill="#a0616a"/>
    <path id="Trazado_38" data-name="Trazado 38" d="M560.827,589.675l2.336-9.346s6.231-28.816-4.673-27.258-14.019,28.816-14.019,28.816l.779,6.231Z" transform="translate(-249.78 -277.943)" fill="#a0616a"/>
    <path id="Trazado_39" data-name="Trazado 39" d="M646.255,600.027s20.249-3.115,21.028,1.558,4.673,74.766-14.8,77.1S536.442,691.148,546.567,667s25.7-21.028,25.7-21.028l66.2,7.01Z" transform="translate(-353.899 -292.189)" fill="#00805e"/>
    <path id="Trazado_40" data-name="Trazado 40" d="M417.437,452.452l20.638-14.408L451.7,448.558,434.571,467.25Z" transform="translate(-186.218 -135.658)" fill="#00805e"/>
    <path id="Trazado_41" data-name="Trazado 41" d="M443.829,479.224l-3.115,29.6L386.976,505.7l46.729-.779Z" transform="translate(-157.315 -148.411)" opacity="0.2"/>
    <ellipse id="Elipse_26" data-name="Elipse 26" cx="38.941" cy="38.941" rx="38.941" ry="38.941" transform="translate(87.736 287.302)" fill="#2f2e41"/>
    <path id="Trazado_42" data-name="Trazado 42" d="M381.268,299l-48.287-1.681-4.673-17.789,49.844,1.5Z" transform="translate(-54.255 -86.568)" fill="#00c893"/>
    <path id="Trazado_43" data-name="Trazado 43" d="M384.245,319.957l-73.208-2.337-.779-3.115,73.208,2.578Z" transform="translate(-44.771 -97.399)" fill="#e6e6e6"/>
    <path id="Trazado_44" data-name="Trazado 44" d="M381.989,331.239,308.78,328.9,308,325.787l73.209,2.578Z" transform="translate(-40.957 -100.893)" fill="#e6e6e6"/>
    <path id="Trazado_45" data-name="Trazado 45" d="M380.861,340.264l-73.208-2.336-.779-3.115,73.209,2.577Z" transform="translate(-39.05 -103.688)" fill="#e6e6e6"/>
  </g>
</svg>
