<svg xmlns="http://www.w3.org/2000/svg" xmlns:xlink="http://www.w3.org/1999/xlink" width="883" height="641.651" viewBox="0 0 883 641.651"><defs><linearGradient id="a" x1="0.193" y1="0.5" x2="0.296" y2="0.75" gradientUnits="objectBoundingBox"><stop offset="0" stop-color="#00c893"/><stop offset="1" stop-color="#00805e"/></linearGradient></defs><path d="M-6289.772,642.5V.85c29.746.515,59.638,1.735,89.236,3.644,39.382,2.541,79.321,6.376,118.706,11.4,38.4,4.895,77.334,11.053,115.716,18.3,37.384,7.059,75.271,15.349,112.613,24.639,36.332,9.038,73.139,19.271,109.4,30.411,35.244,10.828,70.935,22.81,106.081,35.614,34.115,12.43,68.65,25.972,102.646,40.252,32.949,13.841,66.292,28.753,99.1,44.322q14.711,6.981,29.5,14.241V642.5Z" transform="translate(6289.772 -0.85)" fill="url(#a)"/></svg>